<?xml version="1.0" encoding="UTF-8" standalone="no"?>
<svg
   xmlns:dc="http://purl.org/dc/elements/1.1/"
   xmlns:cc="http://creativecommons.org/ns#"
   xmlns:rdf="http://www.w3.org/1999/02/22-rdf-syntax-ns#"
   xmlns:svg="http://www.w3.org/2000/svg"
   xmlns="http://www.w3.org/2000/svg"
   xmlns:sodipodi="http://sodipodi.sourceforge.net/DTD/sodipodi-0.dtd"
   xmlns:inkscape="http://www.inkscape.org/namespaces/inkscape"
   viewBox="0 0 622.33599 252.58333"
   height="252.58333"
   width="622.336"
   preserveAspectRatio="xMaxYMin"
   xml:space="preserve"
   id="svg2"
   version="1.1"
   inkscape:version="0.91 r13725"
   sodipodi:docname="eika_logo.svg"><sodipodi:namedview
     pagecolor="#ffffff"
     bordercolor="#666666"
     borderopacity="1"
     objecttolerance="10"
     gridtolerance="10"
     guidetolerance="10"
     inkscape:pageopacity="0"
     inkscape:pageshadow="2"
     inkscape:window-width="2560"
     inkscape:window-height="1377"
     id="namedview3456"
     showgrid="false"
     fit-margin-top="0"
     fit-margin-left="0"
     fit-margin-right="0"
     fit-margin-bottom="0"
     inkscape:zoom="0.25923814"
     inkscape:cx="311.47628"
     inkscape:cy="126.39388"
     inkscape:window-x="-8"
     inkscape:window-y="-8"
     inkscape:window-maximized="1"
     inkscape:current-layer="svg2" /><metadata
     id="metadata8"><rdf:RDF><cc:Work
         rdf:about=""><dc:format>image/svg+xml</dc:format><dc:type
           rdf:resource="http://purl.org/dc/dcmitype/StillImage" /><dc:title></dc:title></cc:Work></rdf:RDF></metadata><defs
     id="defs6"><clipPath
       id="clipPath18"
       clipPathUnits="userSpaceOnUse"><path
         id="path16"
         d="m 0,595.28 841.89,0 L 841.89,0 0,0 Z"
         inkscape:connector-curvature="0" /></clipPath></defs><g
     transform="matrix(1.3333333,0,0,-1.3333333,-249.78373,523.04279)"
     id="g10"><g
       id="g12"><g
         clip-path="url(#clipPath18)"
         id="g14"><g
           transform="translate(255.7178,284.249)"
           id="g20"><path
             id="path22"
             style="fill:#84bd00;fill-opacity:1;fill-rule:nonzero;stroke:none"
             d="m 0,0 14.328,0 c 0,3.737 -0.502,7.26 -1.5,10.566 -1.001,3.304 -2.479,6.197 -4.436,8.676 -1.956,2.479 -4.394,4.435 -7.306,5.87 -2.915,1.435 -6.327,2.153 -10.24,2.153 -3.913,0 -7.393,-0.718 -10.436,-2.153 -3.046,-1.435 -5.675,-3.391 -7.894,-5.87 -2.217,-2.479 -8.7,-13.115 -8.7,-31.83 0,-26.203 8.309,-33.965 11.832,-36.529 3.522,-2.566 7.632,-4.436 12.329,-5.609 4.694,-1.174 9.783,-1.761 15.263,-1.761 5.999,0 12.262,0.608 18.785,1.826 6.522,1.217 13.131,2.956 19.829,5.219 l 0,-24.657 c -4.002,-1.741 -10.135,-3.391 -18.394,-4.958 -8.264,-1.565 -16.83,-2.347 -25.7,-2.347 -8.959,0 -17.462,1.154 -25.504,3.457 -8.045,2.303 -15.067,6.021 -21.069,11.153 -6,5.132 -10.763,11.784 -14.284,19.96 -3.522,8.173 -5.283,18.089 -5.283,29.744 0,11.479 1.65,21.526 4.957,30.135 3.303,8.61 7.739,15.74 13.306,21.394 5.564,5.653 11.935,9.893 19.112,12.72 7.174,2.825 14.588,4.239 22.242,4.239 7.999,0 15.372,-1.218 22.112,-3.652 6.738,-2.435 12.566,-6.262 17.481,-11.48 4.912,-5.219 8.741,-11.936 11.481,-20.155 2.738,-8.219 4.108,-17.938 4.108,-29.158 -0.088,-4.349 -0.218,-8.045 -0.39,-11.088 l -72.345,0 C -26.316,-24.135 -27.904,0 0,0"
             inkscape:connector-curvature="0" /></g><path
           id="path24"
           style="fill:#84bd00;fill-opacity:1;fill-rule:nonzero;stroke:none"
           d="m 321.639,332.517 30.918,0 0,-126.411 -30.918,0 z"
           inkscape:connector-curvature="0" /><g
           transform="translate(557.2578,284.3076)"
           id="g26"><path
             id="path28"
             style="fill:#84bd00;fill-opacity:1;fill-rule:nonzero;stroke:none"
             d="m 0,0 c 0,-14.746 -5.384,-22.289 -19.758,-24.273 -11.075,-1.531 -17.712,-6.409 -17.712,-15.409 0,-8.166 5.912,-17.125 20.024,-17.125 3.13,0 6.087,0.412 8.87,1.239 2.783,0.826 5.349,1.87 7.698,3.13 2.346,1.261 4.455,2.676 6.325,4.241 1.869,1.566 3.457,3.086 4.761,4.566 l 0,42.527 c 0,8.835 -0.815,11.756 -1.498,13.634 -1.001,2.74 -2.61,5.173 -4.828,7.305 -2.219,2.13 -5.11,3.827 -8.675,5.088 -3.566,1.26 -7.914,1.891 -13.045,1.891 -6.262,0 -12.523,-0.696 -18.785,-2.087 -6.264,-1.392 -13.046,-3.479 -20.352,-6.261 l 0,24.134 c 6.347,2.782 13.089,4.912 20.221,6.392 7.128,1.478 14.611,2.26 22.438,2.348 9.217,0 17.285,-1.132 24.199,-3.392 6.914,-2.262 12.695,-5.371 17.351,-9.327 4.651,-3.959 8.131,-8.633 10.436,-14.024 2.303,-5.394 3.458,-11.264 3.458,-17.613 l 0,-54.989 c 0,-17.044 5.469,-30.196 5.469,-30.196 l -26.042,0 c 0,0 -2.098,1.687 -4.428,5.183 -2.656,3.985 -3.961,8.252 -3.961,8.252 -1.74,-1.826 -3.826,-3.696 -6.262,-5.609 -2.435,-1.913 -5.217,-3.717 -8.349,-5.413 -3.13,-1.695 -6.61,-3.066 -10.436,-4.109 -3.828,-1.044 -7.957,-1.566 -12.393,-1.566 -6.001,0 -11.612,0.936 -16.83,2.806 -5.218,1.868 -9.698,4.565 -13.435,8.087 -3.741,3.523 -6.677,7.783 -8.807,12.785 -2.132,5 -3.195,10.588 -3.195,16.764 0,29.054 22.139,39.445 42.719,41.078 C -11.963,1.078 0,0 0,0"
             inkscape:connector-curvature="0" /></g><g
           transform="translate(654.0898,224.6631)"
           id="g30"><path
             id="path32"
             style="fill:#84bd00;fill-opacity:1;fill-rule:nonzero;stroke:none"
             d="m 0,0 c 0,-10.316 -8.361,-18.678 -18.679,-18.678 -10.314,0 -18.676,8.362 -18.676,18.678 0,10.315 8.362,18.678 18.676,18.678 C -8.361,18.678 0,10.315 0,0"
             inkscape:connector-curvature="0" /></g><g
           transform="translate(448.8896,332.5171)"
           id="g34"><path
             id="path36"
             style="fill:#84bd00;fill-opacity:1;fill-rule:nonzero;stroke:none"
             d="m 0,0 -42.114,-42.504 0,102.269 -30.918,0 0,-186.176 30.918,0 0,49.661 L 38.547,0 Z"
             inkscape:connector-curvature="0" /></g><g
           transform="translate(489.6436,206.1064)"
           id="g38"><path
             id="path40"
             style="fill:#84bd00;fill-opacity:1;fill-rule:nonzero;stroke:none"
             d="m 0,0 -36.318,0 -19.63,30.731 c -14.411,22.722 6.159,39.927 6.159,39.927 z"
             inkscape:connector-curvature="0" /></g></g></g></g></svg>
